<svg xmlns="http://www.w3.org/2000/svg" width="1200" height="720" viewBox="0 0 1200 720">
  <defs>
    <linearGradient id="g" x1="0" y1="0" x2="1" y2="1">
      <stop offset="0%" stop-color="#1c1c1c"/>
      <stop offset="100%" stop-color="#2a2a2a"/>
    </linearGradient>
  </defs>
  <rect width="1200" height="720" fill="url(#g)"/>
  <rect x="40" y="40" width="1120" height="48" rx="6" fill="#121212"/>
  <circle cx="72" cy="64" r="6" fill="#555"/>
  <circle cx="94" cy="64" r="6" fill="#555"/>
  <circle cx="116" cy="64" r="6" fill="#555"/>
  <rect x="40" y="110" width="260" height="570" rx="8" fill="#161616"/>
  <rect x="60" y="140" width="180" height="14" rx="3" fill="#3a3a3a"/>
  <rect x="60" y="170" width="140" height="10" rx="3" fill="#2e2e2e"/>
  <rect x="60" y="200" width="160" height="10" rx="3" fill="#2e2e2e"/>
  <rect x="60" y="230" width="120" height="10" rx="3" fill="#2e2e2e"/>
  <rect x="320" y="110" width="840" height="120" rx="8" fill="#161616"/>
  <text x="350" y="175" fill="#efefef" font-family="Georgia, serif" font-size="36">PeaceAtHome</text>
  <text x="350" y="210" fill="#888" font-family="Arial, sans-serif" font-size="18">Catalogo y contacto</text>
  <rect x="320" y="250" width="400" height="200" rx="8" fill="#161616"/>
  <rect x="740" y="250" width="420" height="200" rx="8" fill="#161616"/>
  <rect x="320" y="470" width="840" height="210" rx="8" fill="#161616"/>
  <text x="600" y="690" text-anchor="middle" fill="#555" font-family="Arial, sans-serif" font-size="14">Captura provisional — reemplaza con tu screenshot real</text>
</svg>